<svg xmlns="http://www.w3.org/2000/svg" viewBox="0 0 256 256">
  <path d="
    M 126.642 104.702 L 104.465 130.574 C 103.754 131.39 103.882 132.584 104.723 133.211 C 105.046 133.463 105.499 133.651 105.952 133.651 L 125.802 133.651 C 126.901 133.651 127.741 134.468 127.741 135.536 C 127.741 135.598 127.741 135.66 127.741 135.787 L 125.93 149.916 C 125.802 150.92 126.578 151.862 127.611 151.988 C 128.259 152.05 128.905 151.799 129.358 151.297 L 151.535 125.425 C 152.247 124.609 152.118 123.416 151.277 122.788 C 150.954 122.536 150.501 122.348 150.05 122.348 L 130.199 122.348 C 129.099 122.348 128.259 121.532 128.259 120.464 C 128.259 120.401 128.259 120.339 128.259 120.212 L 130.069 106.083 C 130.198 105.079 129.422 104.137 128.388 104.012 C 127.677 103.949 127.03 104.199 126.642 104.702 Z
    M 223.953 131 A 96 96 0 0 1 212.597 173.379 L 170.987 149.356 A 48 48 0 0 0 175.906 131 L 223.953 131 Z
    M 167.988 154.551 L 209.598 178.574 A 96 96 0 0 1 178.574 209.598 L 154.551 167.988 A 48 48 0 0 0 167.988 154.551 Z
    M 149.356 170.987 A 48 48 0 0 1 131 175.906 L 131 223.953 A 96 96 0 0 0 173.379 212.597 L 149.356 170.987 Z
    M 223.953 125 L 175.906 125 A 48 48 0 0 0 170.987 106.644 L 212.597 82.621 A 96 96 0 0 1 223.953 125 Z
    M 32.047 131 A 96 96 0 0 0 43.403 173.379 L 85.013 149.356 A 48 48 0 0 1 80.094 131 L 32.047 131 Z
    M 101.449 167.988 A 48 48 0 0 1 88.012 154.551 L 46.402 178.574 A 96 96 0 0 0 77.426 209.598 L 101.449 167.988 Z
    M 209.598 77.426 L 167.988 101.449 A 48 48 0 0 0 154.551 88.012 L 178.574 46.402 A 96 96 0 0 1 209.598 77.426 Z
    M 173.379 43.403 A 96 96 0 0 0 131 32.047 L 131 80.094 A 48 48 0 0 1 149.356 85.013 L 173.379 43.403 Z
    M 106.644 170.987 L 82.621 212.597 A 96 96 0 0 0 125 223.953 L 125 175.906 A 48 48 0 0 1 106.644 170.987 Z
    M 106.644 85.013 A 48 48 0 0 1 125 80.094 L 125 32.047 A 96 96 0 0 0 82.621 43.403 Z M 85.963 44.483 A 93.5 93.5 0 0 1 122.646 34.653 L 122.224 77.831 A 50.5 50.5 0 0 0 107.916 81.665 Z
    M 101.449 88.012 A 48 48 0 0 0 88.012 101.449 L 46.402 77.426 A 96 96 0 0 1 77.426 46.402 Z M 76.69 49.836 A 93.5 93.5 0 0 0 49.836 76.69 L 87.441 97.914 A 50.5 50.5 0 0 1 97.914 87.441 Z
    M 85.013 106.644 A 48 48 0 0 0 80.094 125 L 32.047 125 A 96 96 0 0 1 43.403 82.621 Z M 44.483 85.963 A 93.5 93.5 0 0 0 34.653 122.646 L 77.831 122.224 A 50.5 50.5 0 0 1 81.665 107.916 Z
  " fill="currentColor"/>
</svg>
